<svg width="1090" height="960" viewBox="0 0 1728 993" fill="none" xmlns="http://www.w3.org/2000/svg">
   <path d="M1904.5 604C1616.03 1330.69 1194.57 21.0997 846.152 740.288C497.736 1459.48 -366.642 445.711 -346.659 145.632C-346.659 -217.857 614.739 -460 1162.5 -460C1710.26 -460 1918.41 224.745 1904.5 604Z" fill="url(#paint0_linear_0_1)" fill-opacity="0.9"/>
   <path d="M1485 -131.487C1485 116.957 1086.56 366.216 682.801 533.287C313.179 686.235 -262 266.906 -262 18.4623C-262 -229.981 173.36 -367.906 607.446 -367.906C1041.53 -367.906 1485 -379.93 1485 -131.487Z" fill="url(#paint1_linear_0_1)" fill-opacity="0.8"/>
   <path d="M1210.5 -160C1210.5 5.68542 734.169 202.5 500 202.5C265.831 202.5 -108 97.6854 -108 -68C-108 -233.685 81.8313 -368 316 -368C550.169 -368 1210.5 -325.685 1210.5 -160Z" fill="url(#paint2_linear_0_1)"/>
   <defs>
   <linearGradient id="paint0_linear_0_1" x1="72" y1="788.5" x2="1467" y2="284.5" gradientUnits="userSpaceOnUse">
   <stop offset="0.20313" stop-color="#041C32"/>
   <stop offset="0.648201" stop-color="#041C32" stop-opacity="0.9"/>
   <stop offset="1" stop-color="#041C32"/>
   </linearGradient>
   <linearGradient id="paint1_linear_0_1" x1="159.5" y1="211.5" x2="1095.84" y2="223.872" gradientUnits="userSpaceOnUse">
   <stop stop-color="#041C32" stop-opacity="0.9"/>
   <stop offset="0.315943" stop-color="#041C32" stop-opacity="0.7"/>
   <stop offset="1" stop-color="#041C32" stop-opacity="0.6"/>
   </linearGradient>
   <linearGradient id="paint2_linear_0_1" x1="157.5" y1="319" x2="992" y2="-209.5" gradientUnits="userSpaceOnUse">
   <stop offset="0.139463" stop-color="#041C32"/>
   <stop offset="0.378992" stop-color="#041C32" stop-opacity="0.8"/>
   <stop offset="0.69598" stop-color="#041C32" stop-opacity="0.4"/>
   </linearGradient>
   </defs>
   </svg>
   