<svg width="1728" height="1117" viewBox="0 0 1728 1117" fill="none" xmlns="http://www.w3.org/2000/svg">
   <g clip-path="url(#clip0_0_4)">
   <rect width="1728" height="1117" rx="10" fill="white"/>
   <path d="M1271.8 232.97C1271.7 233.14 1271.6 233.265 1271.49 233.345C1271.38 233.425 1271.24 233.465 1271.07 233.465C1270.89 233.465 1270.68 233.385 1270.45 233.225C1270.22 233.055 1269.93 232.87 1269.58 232.67C1269.24 232.46 1268.83 232.275 1268.35 232.115C1267.87 231.945 1267.3 231.86 1266.63 231.86C1266 231.86 1265.44 231.945 1264.96 232.115C1264.49 232.275 1264.1 232.5 1263.78 232.79C1263.46 233.07 1263.21 233.405 1263.04 233.795C1262.88 234.175 1262.8 234.59 1262.8 235.04C1262.8 235.62 1262.95 236.1 1263.24 236.48C1263.54 236.86 1263.93 237.185 1264.41 237.455C1264.89 237.725 1265.43 237.96 1266.04 238.16C1266.65 238.36 1267.28 238.57 1267.92 238.79C1268.56 239 1269.18 239.245 1269.79 239.525C1270.4 239.805 1270.95 240.16 1271.43 240.59C1271.91 241.01 1272.29 241.53 1272.58 242.15C1272.88 242.76 1273.03 243.51 1273.03 244.4C1273.03 245.35 1272.87 246.24 1272.54 247.07C1272.22 247.9 1271.75 248.625 1271.13 249.245C1270.51 249.865 1269.74 250.355 1268.83 250.715C1267.93 251.065 1266.91 251.24 1265.76 251.24C1265.07 251.24 1264.4 251.17 1263.75 251.03C1263.1 250.9 1262.48 250.715 1261.9 250.475C1261.32 250.225 1260.78 249.93 1260.27 249.59C1259.77 249.24 1259.32 248.85 1258.92 248.42L1259.83 246.89C1259.92 246.77 1260.03 246.67 1260.15 246.59C1260.28 246.51 1260.42 246.47 1260.58 246.47C1260.79 246.47 1261.03 246.58 1261.3 246.8C1261.58 247.02 1261.92 247.265 1262.32 247.535C1262.73 247.795 1263.22 248.035 1263.78 248.255C1264.35 248.475 1265.04 248.585 1265.85 248.585C1266.51 248.585 1267.1 248.5 1267.62 248.33C1268.14 248.15 1268.57 247.9 1268.92 247.58C1269.28 247.25 1269.56 246.855 1269.75 246.395C1269.94 245.935 1270.03 245.425 1270.03 244.865C1270.03 244.235 1269.89 243.72 1269.6 243.32C1269.31 242.92 1268.92 242.585 1268.44 242.315C1267.96 242.045 1267.42 241.815 1266.81 241.625C1266.2 241.435 1265.57 241.24 1264.93 241.04C1264.29 240.83 1263.67 240.59 1263.06 240.32C1262.45 240.05 1261.9 239.7 1261.42 239.27C1260.94 238.83 1260.56 238.285 1260.27 237.635C1259.98 236.975 1259.83 236.165 1259.83 235.205C1259.83 234.435 1259.98 233.69 1260.28 232.97C1260.58 232.25 1261.02 231.615 1261.59 231.065C1262.17 230.505 1262.88 230.06 1263.72 229.73C1264.56 229.39 1265.52 229.22 1266.6 229.22C1267.81 229.22 1268.92 229.415 1269.93 229.805C1270.95 230.185 1271.83 230.735 1272.58 231.455L1271.8 232.97ZM1280.18 251H1276.97V229.46H1280.18V251ZM1303.08 240.515V248.915C1301.99 249.695 1300.83 250.28 1299.6 250.67C1298.37 251.05 1297.03 251.24 1295.58 251.24C1293.84 251.24 1292.26 250.97 1290.85 250.43C1289.45 249.89 1288.26 249.135 1287.27 248.165C1286.28 247.195 1285.51 246.035 1284.97 244.685C1284.44 243.335 1284.18 241.85 1284.18 240.23C1284.18 238.6 1284.43 237.11 1284.94 235.76C1285.46 234.4 1286.2 233.24 1287.16 232.28C1288.12 231.31 1289.28 230.56 1290.64 230.03C1292.01 229.49 1293.55 229.22 1295.25 229.22C1296.11 229.22 1296.9 229.285 1297.63 229.415C1298.37 229.545 1299.06 229.73 1299.69 229.97C1300.32 230.21 1300.9 230.5 1301.43 230.84C1301.97 231.17 1302.47 231.545 1302.93 231.965L1302.01 233.405C1301.87 233.635 1301.69 233.78 1301.46 233.84C1301.23 233.9 1300.98 233.845 1300.71 233.675C1300.45 233.525 1300.16 233.35 1299.84 233.15C1299.53 232.95 1299.15 232.765 1298.71 232.595C1298.28 232.425 1297.78 232.28 1297.2 232.16C1296.62 232.04 1295.93 231.98 1295.14 231.98C1293.96 231.98 1292.9 232.175 1291.95 232.565C1291 232.945 1290.19 233.495 1289.52 234.215C1288.85 234.935 1288.33 235.805 1287.97 236.825C1287.61 237.835 1287.43 238.97 1287.43 240.23C1287.43 241.55 1287.62 242.735 1288 243.785C1288.38 244.825 1288.92 245.71 1289.61 246.44C1290.31 247.16 1291.15 247.71 1292.14 248.09C1293.14 248.47 1294.26 248.66 1295.49 248.66C1295.97 248.66 1296.41 248.635 1296.82 248.585C1297.24 248.525 1297.64 248.445 1298.02 248.345C1298.4 248.245 1298.77 248.12 1299.12 247.97C1299.48 247.82 1299.83 247.655 1300.18 247.475V242.96H1297C1296.8 242.96 1296.64 242.9 1296.51 242.78C1296.39 242.66 1296.33 242.51 1296.33 242.33V240.515H1303.08ZM1325.02 229.46V251H1323.4C1323.15 251 1322.94 250.955 1322.77 250.865C1322.61 250.775 1322.45 250.63 1322.28 250.43L1310.11 234.695C1310.13 234.965 1310.15 235.23 1310.16 235.49C1310.18 235.75 1310.19 235.995 1310.19 236.225V251H1307.38V229.46H1309.03C1309.31 229.46 1309.52 229.495 1309.66 229.565C1309.8 229.625 1309.96 229.77 1310.13 230L1322.32 245.75C1322.29 245.46 1322.27 245.18 1322.25 244.91C1322.24 244.63 1322.23 244.37 1322.23 244.13V229.46H1325.02ZM1346.34 248.435C1347.2 248.435 1347.97 248.29 1348.65 248C1349.33 247.71 1349.91 247.305 1350.38 246.785C1350.85 246.255 1351.21 245.63 1351.46 244.91C1351.71 244.18 1351.83 243.375 1351.83 242.495V229.46H1355.01V242.495C1355.01 243.755 1354.81 244.92 1354.41 245.99C1354.01 247.06 1353.44 247.985 1352.69 248.765C1351.94 249.545 1351.03 250.155 1349.96 250.595C1348.89 251.035 1347.68 251.255 1346.34 251.255C1345 251.255 1343.8 251.035 1342.73 250.595C1341.66 250.155 1340.75 249.545 1340 248.765C1339.25 247.985 1338.67 247.06 1338.27 245.99C1337.87 244.92 1337.67 243.755 1337.67 242.495V229.46H1340.87V242.48C1340.87 243.36 1340.99 244.165 1341.23 244.895C1341.48 245.625 1341.84 246.255 1342.31 246.785C1342.78 247.305 1343.35 247.71 1344.03 248C1344.71 248.29 1345.48 248.435 1346.34 248.435ZM1366.58 240.545C1367.39 240.545 1368.1 240.44 1368.71 240.23C1369.33 240.02 1369.85 239.725 1370.26 239.345C1370.68 238.955 1370.99 238.495 1371.2 237.965C1371.41 237.425 1371.52 236.83 1371.52 236.18C1371.52 234.87 1371.11 233.84 1370.29 233.09C1369.48 232.34 1368.24 231.965 1366.58 231.965H1363.25V240.545H1366.58ZM1366.58 229.46C1367.96 229.46 1369.16 229.62 1370.18 229.94C1371.2 230.26 1372.05 230.715 1372.72 231.305C1373.39 231.885 1373.88 232.59 1374.2 233.42C1374.53 234.25 1374.7 235.17 1374.7 236.18C1374.7 237.19 1374.52 238.12 1374.17 238.97C1373.82 239.81 1373.31 240.535 1372.63 241.145C1371.95 241.755 1371.1 242.23 1370.08 242.57C1369.07 242.9 1367.9 243.065 1366.58 243.065H1363.25V251H1360.06V229.46H1366.58Z" fill="white"/>
   <mask id="mask0_0_4" style="mask-type:alpha" maskUnits="userSpaceOnUse" x="1663" y="29" width="36" height="38">
   <path d="M1664 34.1667H1678.58M1674.42 30V34.1667C1674.42 43.3708 1669.75 50.8333 1664 50.8333" stroke="black" stroke-width="2" stroke-linecap="round" stroke-linejoin="round"/>
   <path d="M1666.08 42.5C1666.08 46.9667 1672.23 50.6417 1680.04 50.8333M1680.67 65.4167L1689 46.6667L1697.33 65.4167M1695.46 61.25H1682.54" stroke="black" stroke-width="2" stroke-linecap="round" stroke-linejoin="round"/>
   </mask>
   <g mask="url(#mask0_0_4)">
   <rect x="1638" y="-1" width="100" height="100" fill="white"/>
   </g>
   <ellipse cx="71" cy="296" rx="450" ry="476" fill="#041C32" fill-opacity="0.6"/>
   <ellipse cx="85" cy="995" rx="450" ry="432" fill="#041C32" fill-opacity="0.9"/>
   <circle cx="658" cy="-71" r="450" fill="#041C32" fill-opacity="0.5"/>
   <ellipse cx="731" cy="697" rx="450" ry="476" fill="#041C32" fill-opacity="0.9"/>
   <mask id="mask1_0_4" style="mask-type:alpha" maskUnits="userSpaceOnUse" x="42" y="29" width="36" height="38">
   <path d="M43 34.1667H57.5833M53.4167 30V34.1667C53.4167 43.3708 48.7521 50.8333 43 50.8333" stroke="black" stroke-width="2" stroke-linecap="round" stroke-linejoin="round"/>
   <path d="M45.0833 42.5C45.0833 46.9667 51.2333 50.6417 59.0416 50.8333M59.6666 65.4167L68 46.6667L76.3333 65.4167M74.4583 61.25H61.5416" stroke="black" stroke-width="2" stroke-linecap="round" stroke-linejoin="round"/>
   </mask>
   <g mask="url(#mask1_0_4)">
   <rect x="17" y="-1" width="100" height="100" fill="white"/>
   </g>
   </g>
   <defs>
   <clipPath id="clip0_0_4">
   <rect width="1728" height="1117" rx="10" fill="white"/>
   </clipPath>
   </defs>
   </svg>
   